# xmcd
#
# Track frame offsets:
#	150
#	13522
#	28056
#	40432
#	54508
#	70761
#	84609
#	97731
#	112279
#	127879
#	142031
#	156194
#
# Disc length: 2224 seconds
#
# Revision: 0
# Processed by: cddbd v1.5.2PL0 Copyright (c) Steve Scherf et al.
# Submitted via: EasyCDDAExtractor 16.0.6.1
#
DISCID=9f08ae0c
DTITLE=Συλλογικός δίσκος - Από τις 78 στροφές στις 57600
DYEAR=1999
DGENRE=Ρεμπέτικη
TTITLE0=Μπιθικώτσης Γρηγόρης - Φραγκοσυριανή [Μάρκου Βαμβακάρη]
TTITLE1=Γαβαλάς Πάνος - Σιγανοψιχάλισμα [Πάνου Γαβαλά-ΧΒασιλειάδη/ΣΠεριστέρη]
TTITLE2=Τζουανάκος Σταύρος - Λίγα ψίχουλα αγάπης σού γυρεύω [Στ. Τζουανάκου-Κ.
TTITLE2=Βίρβου]
TTITLE3=Μοσχολιού Βίκυ - Ένα τραγούδι απ' τ' Αλγέρι [Απόστολου Καλδάρα]
TTITLE4=Μπιθικώτσης Γρηγόρης - Όλοι οι ρεμπέτες του ντουνιά [Μάρκου Βαμβακάρη]
TTITLE5=Γκολές Μπάμπης - Μού 'φαγες τα δαχτυλίδια [Γιώργου Μητσάκη]
TTITLE6=Ζαγοραίος Σπύρος - Χατζηκυριάκειο (Από βραδύς ξεκίνησα) [Δημήτρη Γκόγκ
TTITLE6=ου]
TTITLE7=Μπιθικώτσης Γρηγόρης - Το χρήμα δεν το λογαριάζω [Μανώλη Χιώτη]
TTITLE8=Μπίνης Τάκης-Ντάλια Ρένα - Φαληριώτισσα [Οδυσσέα Μοσχονά-Αντώνη Παπαϊω
TTITLE8=άννου]
TTITLE9=Γεωργακοπούλου Ιωάννα-Περπινιάδης Στελλάκης - Ο πασατέμπος [Μανώλη Χιώ
TTITLE9=τη-Γιώργου Γιαννακόπουλου]
TTITLE10=Περπινιάδης Στελλάκης - Βουνό με βουνό δεν σμίγει [Μανώλη Χιώτη]
TTITLE11=Μοσχολιού Βίκυ - Οι πρωθυπουργοί [Μάρκου Βαμβακάρη]
EXTD=
EXTT0=
EXTT1=
EXTT2=
EXTT3=
EXTT4=
EXTT5=
EXTT6=
EXTT7=
EXTT8=
EXTT9=
EXTT10=
EXTT11=
PLAYORDER=
